<svg width="19" height="19" viewBox="0 0 19 19" fill="none" xmlns="http://www.w3.org/2000/svg">
<path d="M15.0309 6.41146C15.0309 4.97625 14.4724 3.59982 13.4781 2.58498C12.484 1.57013 11.1356 1 9.72954 1C8.32353 1 6.9751 1.57013 5.9809 2.58498C4.98669 3.59982 4.42816 4.97625 4.42816 6.41146C4.42816 12.7249 1.77747 14.5286 1.77747 14.5286H17.6816C17.6816 14.5286 15.0309 12.7249 15.0309 6.41146Z" stroke="black" stroke-width="1.70704" stroke-linecap="round" stroke-linejoin="round"/>
<path d="M11.2581 17.0652C11.1028 17.3215 10.8799 17.5343 10.6115 17.6821C10.3433 17.83 10.0391 17.9078 9.72954 17.9078C9.41994 17.9078 9.11581 17.83 8.84756 17.6821C8.57931 17.5343 8.3563 17.3215 8.20097 17.0652" stroke="black" stroke-width="1.70704" stroke-linecap="round" stroke-linejoin="round"/>
</svg>
